<svg id="visual" viewBox="0 0 900 600" width="900" height="600" xmlns="http://www.w3.org/2000/svg" xmlns:xlink="http://www.w3.org/1999/xlink" version="1.1"><path d="M0 109L25 107C50 105 100 101 150 119C200 137 250 177 300 193C350 209 400 201 450 191C500 181 550 169 600 160C650 151 700 145 750 137C800 129 850 119 875 114L900 109L900 0L875 0C850 0 800 0 750 0C700 0 650 0 600 0C550 0 500 0 450 0C400 0 350 0 300 0C250 0 200 0 150 0C100 0 50 0 25 0L0 0Z" fill="#9290c3"></path><path d="M0 217L25 214C50 211 100 205 150 216C200 227 250 255 300 266C350 277 400 271 450 266C500 261 550 257 600 252C650 247 700 241 750 240C800 239 850 243 875 245L900 247L900 107L875 112C850 117 800 127 750 135C700 143 650 149 600 158C550 167 500 179 450 189C400 199 350 207 300 191C250 175 200 135 150 117C100 99 50 103 25 105L0 107Z" fill="#7470a7"></path><path d="M0 307L25 304C50 301 100 295 150 299C200 303 250 317 300 326C350 335 400 339 450 340C500 341 550 339 600 331C650 323 700 309 750 300C800 291 850 287 875 285L900 283L900 245L875 243C850 241 800 237 750 238C700 239 650 245 600 250C550 255 500 259 450 264C400 269 350 275 300 264C250 253 200 225 150 214C100 203 50 209 25 212L0 215Z" fill="#56528b"></path><path d="M0 547L25 547C50 547 100 547 150 543C200 539 250 531 300 524C350 517 400 511 450 515C500 519 550 533 600 529C650 525 700 503 750 492C800 481 850 481 875 481L900 481L900 281L875 283C850 285 800 289 750 298C700 307 650 321 600 329C550 337 500 339 450 338C400 337 350 333 300 324C250 315 200 301 150 297C100 293 50 299 25 302L0 305Z" fill="#393570"></path><path d="M0 601L25 601C50 601 100 601 150 601C200 601 250 601 300 601C350 601 400 601 450 601C500 601 550 601 600 601C650 601 700 601 750 601C800 601 850 601 875 601L900 601L900 479L875 479C850 479 800 479 750 490C700 501 650 523 600 527C550 531 500 517 450 513C400 509 350 515 300 522C250 529 200 537 150 541C100 545 50 545 25 545L0 545Z" fill="#1b1a55"></path></svg>